<svg xmlns="http://www.w3.org/2000/svg" width="2230" height="693" viewBox="0 0 2230 693"><defs><style type="text/css"/></defs><g transform="translate(-952.8392743760787 -202.17316932766022) scale(1)"><g class="relationship"><g transform="translate(1248.0814618760787 484.4) rotate(0)" stroke-width="5" stroke="#1976D2"><path d="M 59 0 L 259.3302240338062 0"/><polygon points="-24.8621506177483,0 -27.62461179749811,9.20820393249937 0,0 -27.62461179749811,-9.20820393249937" fill="#1976D2" transform="translate(284.1923746515545 0) rotate(0)" stroke="none"/></g><g transform="translate(1407.2465738929818 484.4) rotate(0) translate(0 -13)"><g transform="translate(0 0)"><g transform="translate(-41.0078125 0)" fill="#ffffff" stroke="#000000" stroke-width="0"><rect x="0" y="0" width="82.015625" height="26" rx="5" ry="5" stroke="none"/><text xml:space="preserve" x="5" y="17.45703125" stroke="none" text-anchor="left" font-family="sans-serif" font-size="16" font-weight="normal" fill="#000000">QUERIES</text></g></g></g></g><g class="relationship"><g transform="translate(1591.2738365276332 484.4) rotate(-5.5107674546944575e-15)" stroke-width="5" stroke="#000000"><path d="M 57.103468881828555 -14.838929936556681 L 91.25752410136127 -23.714216191070207 A 40 40 0 0 1 101.31781558377257 -25 L 295.5022163967558 -25 L 486.45228954971947 -25 A 40 40 0 0 1 496.189527152043 -23.79672929353578 L 507.7251674415721 -20.901504040287524 L 507.7251674415721 -20.901504040287524"/><polygon points="-24.8621506177483,0 -27.62461179749811,9.20820393249937 0,0 -27.62461179749811,-9.20820393249937" fill="#000000" transform="translate(591.0044327935116 0) rotate(14.089126109774341) translate(-61 0)" stroke="none"/></g><g transform="translate(1885.776052924389 459.4) rotate(-5.5107674546944575e-15) translate(0 -13)"><g transform="translate(0 0)"><g transform="translate(-47.5390625 0)" fill="#ffffff" stroke="#000000" stroke-width="0"><rect x="0" y="0" width="95.078125" height="26" rx="5" ry="5" stroke="none"/><text xml:space="preserve" x="5" y="17.45703125" stroke="none" text-anchor="left" font-family="sans-serif" font-size="16" font-weight="normal" fill="#000000">HAS_TOOL</text></g></g></g></g><g class="relationship"><g transform="translate(1591.2738365276332 484.4) rotate(-5.5107674546944575e-15)" stroke-width="8" stroke="#388E3C"><path d="M 57.103468881828555 14.838929936556681 L 91.25752410136127 23.714216191070207 A 40 40 0 0 0 101.31781558377257 25 L 295.5022163967558 25 L 486.45228954971947 25 A 40 40 0 0 0 496.189527152043 23.796729293535776 L 499.1432251108473 23.05540755445898 L 499.1432251108473 23.05540755445898"/><polygon points="-33.71025971044415,0 -37.45584412271572,12.485281374238571 0,0 -37.45584412271572,-12.485281374238571" fill="#388E3C" transform="translate(591.0044327935116 0) rotate(-14.089126109774341) translate(-61 0)" stroke="none"/></g><g transform="translate(1885.776052924389 509.4) rotate(-5.5107674546944575e-15) translate(0 -23.6)"><g transform="translate(0 0)"><g transform="translate(-48.234375 0)" fill="#C8E6C9" stroke="#388E3C" stroke-width="1"><rect x="0.5" y="0.5" width="95.46875" height="27" rx="5" ry="5"/><text xml:space="preserve" x="6" y="18.45703125" stroke="none" text-anchor="left" font-family="sans-serif" font-size="16" font-weight="normal" fill="#000000">SELECTED</text></g></g><g transform="translate(0 28)"><g transform="translate(-116.9296875 0)" fill="white"><rect x="0" y="0" width="233.859375" height="19.2" rx="0" ry="0" stroke="none"/><g font-family="sans-serif" font-size="16" font-weight="normal" fill="#000000" text-anchor="end"><text xml:space="preserve" x="57.8125" y="14.05703125" stroke="none">reason:</text><text xml:space="preserve" x="62.2578125" y="14.05703125" stroke="none" text-anchor="start">Highest similarity (0.92)</text></g></g></g></g></g><g class="relationship"><g transform="translate(1591.2738365276332 484.4) rotate(25.789602725402403)" stroke-width="5" stroke="#000000"><path d="M 59 0 L 297.29426585503654 0"/><polygon points="-24.8621506177483,0 -27.62461179749811,9.20820393249937 0,0 -27.62461179749811,-9.20820393249937" fill="#000000" transform="translate(322.1564164727849 0) rotate(0)" stroke="none"/></g><g transform="translate(1751.6771117828105 561.9060659413615) rotate(25.789602725402403) translate(0 -13)"><g transform="translate(0 0)"><g transform="translate(-47.5390625 0)" fill="#ffffff" stroke="#000000" stroke-width="0"><rect x="0" y="0" width="95.078125" height="26" rx="5" ry="5" stroke="none"/><text xml:space="preserve" x="5" y="17.45703125" stroke="none" text-anchor="left" font-family="sans-serif" font-size="16" font-weight="normal" fill="#000000">HAS_TOOL</text></g></g></g></g><g class="relationship"><g transform="translate(1591.2738365276332 484.4) rotate(54.08511409640616)" stroke-width="5" stroke="#000000"><path d="M 59 0 L 259.3302240338064 0"/><polygon points="-24.8621506177483,0 -27.62461179749811,9.20820393249937 0,0 -27.62461179749811,-9.20820393249937" fill="#000000" transform="translate(284.1923746515547 0) rotate(0)" stroke="none"/></g><g transform="translate(1684.6373523658374 613.3061161996695) rotate(54.08511409640616) translate(0 -13)"><g transform="translate(0 0)"><g transform="translate(-47.5390625 0)" fill="#ffffff" stroke="#000000" stroke-width="0"><rect x="0" y="0" width="95.078125" height="26" rx="5" ry="5" stroke="none"/><text xml:space="preserve" x="5" y="17.45703125" stroke="none" text-anchor="left" font-family="sans-serif" font-size="16" font-weight="normal" fill="#000000">HAS_TOOL</text></g></g></g></g><g class="relationship"><g transform="translate(1591.2738365276332 484.4) rotate(90)" stroke-width="5" stroke="#000000"><path d="M 59 0 L 194.08567076772997 0"/><polygon points="-24.8621506177483,0 -27.62461179749811,9.20820393249937 0,0 -27.62461179749811,-9.20820393249937" fill="#000000" transform="translate(218.94782138547828 0) rotate(0)" stroke="none"/></g><g transform="translate(1591.2738365276332 610.9428353838649) rotate(270) translate(0 -13)"><g transform="translate(0 0)"><g transform="translate(-47.5390625 0)" fill="#ffffff" stroke="#000000" stroke-width="0"><rect x="0" y="0" width="95.078125" height="26" rx="5" ry="5" stroke="none"/><text xml:space="preserve" x="5" y="17.45703125" stroke="none" text-anchor="left" font-family="sans-serif" font-size="16" font-weight="normal" fill="#000000">HAS_TOOL</text></g></g></g></g><g class="relationship"><g transform="translate(1591.2738365276332 484.4) rotate(125.91488590359388)" stroke-width="5" stroke="#000000"><path d="M 59 0 L 259.3302240338062 0"/><polygon points="-24.8621506177483,0 -27.62461179749811,9.20820393249937 0,0 -27.62461179749811,-9.20820393249937" fill="#000000" transform="translate(284.19237465155453 0) rotate(0)" stroke="none"/></g><g transform="translate(1497.9103206894288 613.3061161996694) rotate(305.91488590359387) translate(0 -13)"><g transform="translate(0 0)"><g transform="translate(-47.5390625 0)" fill="#ffffff" stroke="#000000" stroke-width="0"><rect x="0" y="0" width="95.078125" height="26" rx="5" ry="5" stroke="none"/><text xml:space="preserve" x="5" y="17.45703125" stroke="none" text-anchor="left" font-family="sans-serif" font-size="16" font-weight="normal" fill="#000000">HAS_TOOL</text></g></g></g></g><g class="relationship"><g transform="translate(1591.2738365276332 484.4) rotate(154.21039727459763)" stroke-width="5" stroke="#000000"><path d="M 59 0 L 297.29426585503654 0"/><polygon points="-24.8621506177483,0 -27.62461179749811,9.20820393249937 0,0 -27.62461179749811,-9.20820393249937" fill="#000000" transform="translate(322.1564164727849 0) rotate(0)" stroke="none"/></g><g transform="translate(1430.870561272456 561.9060659413615) rotate(334.21039727459765) translate(0 -13)"><g transform="translate(0 0)"><g transform="translate(-47.5390625 0)" fill="#ffffff" stroke="#000000" stroke-width="0"><rect x="0" y="0" width="95.078125" height="26" rx="5" ry="5" stroke="none"/><text xml:space="preserve" x="5" y="17.45703125" stroke="none" text-anchor="left" font-family="sans-serif" font-size="16" font-weight="normal" fill="#000000">HAS_TOOL</text></g></g></g></g><g class="relationship"><g transform="translate(2182.2782693211448 484.3999999999999) rotate(-26.672770955374055)" stroke-width="5" stroke="#000000"><path d="M 61 0 L 285.5540336488624 0"/><polygon points="-24.8621506177483,0 -27.62461179749811,9.20820393249937 0,0 -27.62461179749811,-9.20820393249937" fill="#000000" transform="translate(310.4161842666107 0) rotate(0)" stroke="none"/></g><g transform="translate(2337.1159812477113 406.6169200602097) rotate(-26.672770955374055) translate(0 -13)"><g transform="translate(0 0)"><g transform="translate(-53.7578125 0)" fill="#ffffff" stroke="#000000" stroke-width="0"><rect x="0" y="0" width="107.515625" height="26" rx="5" ry="5" stroke="none"/><text xml:space="preserve" x="5" y="17.45703125" stroke="none" text-anchor="left" font-family="sans-serif" font-size="16" font-weight="normal" fill="#000000">HAS_PARAM</text></g></g></g></g><g class="relationship"><g transform="translate(2182.2782693211448 484.3999999999999) rotate(26.672770955374073)" stroke-width="5" stroke="#000000"><path d="M 61 0 L 285.5540336488624 0"/><polygon points="-24.8621506177483,0 -27.62461179749811,9.20820393249937 0,0 -27.62461179749811,-9.20820393249937" fill="#000000" transform="translate(310.4161842666107 0) rotate(0)" stroke="none"/></g><g transform="translate(2337.1159812477113 562.1830799397902) rotate(26.672770955374073) translate(0 -13)"><g transform="translate(0 0)"><g transform="translate(-53.7578125 0)" fill="#ffffff" stroke="#000000" stroke-width="0"><rect x="0" y="0" width="107.515625" height="26" rx="5" ry="5" stroke="none"/><text xml:space="preserve" x="5" y="17.45703125" stroke="none" text-anchor="left" font-family="sans-serif" font-size="16" font-weight="normal" fill="#000000">HAS_PARAM</text></g></g></g></g><g class="relationship"><g transform="translate(2182.2782693211448 484.3999999999999) rotate(9.866227433508975e-15)" stroke-width="6" stroke="#388E3C"><path d="M 61 0 L 243.16382768609347 0"/><polygon points="-27.94086691654374,0 -31.0454076850486,10.348469228349533 0,0 -31.0454076850486,-10.348469228349533" fill="#388E3C" transform="translate(271.1046946026372 0) rotate(0)" stroke="none"/></g><g transform="translate(2334.3601831641913 484.3999999999999) rotate(9.866227433508975e-15) translate(0 -13)"><g transform="translate(0 0)"><g transform="translate(-41.75390625 0)" fill="#ffffff" stroke="#000000" stroke-width="0"><rect x="0" y="0" width="83.5078125" height="26" rx="5" ry="5" stroke="none"/><text xml:space="preserve" x="5" y="17.45703125" stroke="none" text-anchor="left" font-family="sans-serif" font-size="16" font-weight="normal" fill="#000000">SENT_TO</text></g></g></g></g><g class="relationship"><g transform="translate(2512.382963923782 484.4) rotate(8.153145426362227e-15)" stroke-width="5" stroke="#7B1FA2"><path d="M 59 0 L 315.6018382481784 0"/><polygon points="-24.8621506177483,0 -27.62461179749811,9.20820393249937 0,0 -27.62461179749811,-9.20820393249937" fill="#7B1FA2" transform="translate(340.4639888659267 0) rotate(0)" stroke="none"/></g><g transform="translate(2699.683883047871 484.4) rotate(8.153145426362227e-15) translate(0 -13)"><g transform="translate(0 0)"><g transform="translate(-53.75390625 0)" fill="#ffffff" stroke="#000000" stroke-width="0"><rect x="0" y="0" width="107.5078125" height="26" rx="5" ry="5" stroke="none"/><text xml:space="preserve" x="5" y="17.45703125" stroke="none" text-anchor="left" font-family="sans-serif" font-size="16" font-weight="normal" fill="#000000">GENERATES</text></g></g></g></g><g class="node"><g fill="#E3F2FD" stroke="#1976D2" stroke-width="4"><circle cx="1248.0814618760787" cy="484.4" r="52"/></g><g transform="translate(1248.0814618760787 484.4)"><g transform="scale(0.35261368266791177) translate(0 -89)"><g transform="translate(0 0)"><g fill="#000000" font-family="sans-serif" font-size="50" font-weight="normal" text-anchor="middle"><text xml:space="preserve" x="0" y="43.92822265625" stroke="none">User</text><text xml:space="preserve" x="0" y="103.92822265625" stroke="none" text-anchor="middle">Prompt</text></g></g><g transform="translate(0 124)"><g transform="translate(-91.462890625 0)"><g fill="#ffffff" stroke="#000000" stroke-width="4"><rect x="0" y="0" width="182.92578125" height="54" rx="27" ry="27"/><text xml:space="preserve" x="27" y="38.142578125" stroke="none" font-family="sans-serif" font-size="40" font-weight="normal" fill="#000000">Prompt</text></g></g></g></g><g transform="translate(-56 -19.199999999999992)"><g transform="translate(0 0)"><g transform="translate(-239.2421875 0)" fill="white"><rect x="0" y="0" width="239.2421875" height="38.4" rx="0" ry="0" stroke="none"/><g font-family="sans-serif" font-size="16" font-weight="normal" fill="#000000" text-anchor="end"><text xml:space="preserve" x="88.0625" y="14.05703125" stroke="none">text:</text><text xml:space="preserve" x="92.5078125" y="14.05703125" stroke="none" text-anchor="start">Search for API docs</text><text xml:space="preserve" x="88.0625" y="33.25703125" stroke="none" text-anchor="end">embedding:</text><text xml:space="preserve" x="92.5078125" y="33.25703125" stroke="none" text-anchor="start">vector</text></g></g></g></g></g></g><g class="node"><g fill="#FFF3E0" stroke="#F57C00" stroke-width="4"><circle cx="1591.2738365276332" cy="484.4" r="52"/></g><g transform="translate(1591.2738365276332 484.4)"><g transform="scale(0.4063733687817848) translate(0 -59)"><g transform="translate(0 0)"><g fill="#000000" font-family="sans-serif" font-size="50" font-weight="normal" text-anchor="middle"><text xml:space="preserve" x="0" y="43.92822265625" stroke="none">ToolSet</text></g></g><g transform="translate(0 64)"><g transform="translate(-93.708984375 0)"><g fill="#ffffff" stroke="#000000" stroke-width="4"><rect x="0" y="0" width="187.41796875" height="54" rx="27" ry="27"/><text xml:space="preserve" x="27" y="38.142578125" stroke="none" font-family="sans-serif" font-size="40" font-weight="normal" fill="#000000">ToolSet</text></g></g></g></g><g transform="translate(3.429011037612589e-15 -113.6)"><g transform="translate(0 0)"><g transform="translate(-86.2890625 0)" fill="white"><rect x="0" y="0" width="172.578125" height="57.599999999999994" rx="0" ry="0" stroke="none"/><g font-family="sans-serif" font-size="16" font-weight="normal" fill="#000000" text-anchor="end"><text xml:space="preserve" x="81.84375" y="14.05703125" stroke="none">hash:</text><text xml:space="preserve" x="86.2890625" y="14.05703125" stroke="none" text-anchor="start">abc123...</text><text xml:space="preserve" x="81.84375" y="33.25703125" stroke="none" text-anchor="end">toolCount:</text><text xml:space="preserve" x="86.2890625" y="33.25703125" stroke="none" text-anchor="start">108</text><text xml:space="preserve" x="81.84375" y="52.45703125" stroke="none" text-anchor="end">updatedAt:</text><text xml:space="preserve" x="86.2890625" y="52.45703125" stroke="none" text-anchor="start">2025-01-15</text></g></g></g></g></g></g><g class="node"><g fill="#C8E6C9" stroke="#388E3C" stroke-width="6"><circle cx="2182.2782693211448" cy="484.3999999999999" r="53"/></g><g transform="translate(2182.2782693211448 484.3999999999999)"><g transform="scale(0.31124483768836075) translate(0 -59)"><g transform="translate(0 0)"><g fill="#000000" font-family="sans-serif" font-size="50" font-weight="normal" text-anchor="middle"><text xml:space="preserve" x="0" y="43.92822265625" stroke="none">searchDocs</text></g></g><g transform="translate(0 64)"><g transform="translate(-63.689453125 0)"><g fill="#ffffff" stroke="#000000" stroke-width="4"><rect x="0" y="0" width="127.37890625" height="54" rx="27" ry="27"/><text xml:space="preserve" x="27" y="38.142578125" stroke="none" font-family="sans-serif" font-size="40" font-weight="normal" fill="#000000">Tool</text></g></g></g></g><g transform="translate(3.5514757175273244e-15 -134.8)"><g transform="translate(0 0)"><g transform="translate(-128.52734375 0)" fill="white"><rect x="0" y="0" width="257.0546875" height="76.8" rx="0" ry="0" stroke="none"/><g font-family="sans-serif" font-size="16" font-weight="normal" fill="#000000" text-anchor="end"><text xml:space="preserve" x="88.0625" y="14.05703125" stroke="none">name:</text><text xml:space="preserve" x="92.5078125" y="14.05703125" stroke="none" text-anchor="start">searchDocs</text><text xml:space="preserve" x="88.0625" y="33.25703125" stroke="none" text-anchor="end">description:</text><text xml:space="preserve" x="92.5078125" y="33.25703125" stroke="none" text-anchor="start">Search documentation</text><text xml:space="preserve" x="88.0625" y="52.45703125" stroke="none" text-anchor="end">embedding:</text><text xml:space="preserve" x="92.5078125" y="52.45703125" stroke="none" text-anchor="start">vector</text><text xml:space="preserve" x="88.0625" y="71.65703125" stroke="none" text-anchor="end">similarity:</text><text xml:space="preserve" x="92.5078125" y="71.65703125" stroke="none" text-anchor="start">0.92</text></g></g></g></g></g></g><g class="node"><g fill="#F5F5F5" stroke="#9E9E9E" stroke-width="4"><circle cx="1934.4662111791877" cy="650.2288509258931" r="52"/></g><g transform="translate(1934.4662111791877 650.2288509258931)"><g transform="scale(0.2506579773479013) translate(0 -59)"><g transform="translate(0 0)"><g fill="#000000" font-family="sans-serif" font-size="50" font-weight="normal" text-anchor="middle"><text xml:space="preserve" x="0" y="43.92822265625" stroke="none">queryDatabase</text></g></g><g transform="translate(0 64)"><g transform="translate(-63.689453125 0)"><g fill="#ffffff" stroke="#000000" stroke-width="4"><rect x="0" y="0" width="127.37890625" height="54" rx="27" ry="27"/><text xml:space="preserve" x="27" y="38.142578125" stroke="none" font-family="sans-serif" font-size="40" font-weight="normal" fill="#000000">Tool</text></g></g></g></g><g transform="translate(39.59797974644666 39.597979746446654)"><g transform="translate(0 0)"><g transform="translate(0 0)" fill="white"><rect x="0" y="0" width="247.265625" height="76.8" rx="0" ry="0" stroke="none"/><g font-family="sans-serif" font-size="16" font-weight="normal" fill="#000000" text-anchor="end"><text xml:space="preserve" x="88.0625" y="14.05703125" stroke="none">name:</text><text xml:space="preserve" x="92.5078125" y="14.05703125" stroke="none" text-anchor="start">queryDatabase</text><text xml:space="preserve" x="88.0625" y="33.25703125" stroke="none" text-anchor="end">description:</text><text xml:space="preserve" x="92.5078125" y="33.25703125" stroke="none" text-anchor="start">Query SQL database</text><text xml:space="preserve" x="88.0625" y="52.45703125" stroke="none" text-anchor="end">embedding:</text><text xml:space="preserve" x="92.5078125" y="52.45703125" stroke="none" text-anchor="start">vector</text><text xml:space="preserve" x="88.0625" y="71.65703125" stroke="none" text-anchor="end">similarity:</text><text xml:space="preserve" x="92.5078125" y="71.65703125" stroke="none" text-anchor="start">0.43</text></g></g></g></g></g></g><g class="node"><g fill="#F5F5F5" stroke="#9E9E9E" stroke-width="4"><circle cx="1792.5845779351382" cy="762.3478213854783" r="52"/></g><g transform="translate(1792.5845779351382 762.3478213854783)"><g transform="scale(0.3440692134263281) translate(0 -59)"><g transform="translate(0 0)"><g fill="#000000" font-family="sans-serif" font-size="50" font-weight="normal" text-anchor="middle"><text xml:space="preserve" x="0" y="43.92822265625" stroke="none">sendEmail</text></g></g><g transform="translate(0 64)"><g transform="translate(-63.689453125 0)"><g fill="#ffffff" stroke="#000000" stroke-width="4"><rect x="0" y="0" width="127.37890625" height="54" rx="27" ry="27"/><text xml:space="preserve" x="27" y="38.142578125" stroke="none" font-family="sans-serif" font-size="40" font-weight="normal" fill="#000000">Tool</text></g></g></g></g><g transform="translate(39.59797974644666 39.597979746446654)"><g transform="translate(0 0)"><g transform="translate(0 0)" fill="white"><rect x="0" y="0" width="254.3671875" height="76.8" rx="0" ry="0" stroke="none"/><g font-family="sans-serif" font-size="16" font-weight="normal" fill="#000000" text-anchor="end"><text xml:space="preserve" x="88.0625" y="14.05703125" stroke="none">name:</text><text xml:space="preserve" x="92.5078125" y="14.05703125" stroke="none" text-anchor="start">sendEmail</text><text xml:space="preserve" x="88.0625" y="33.25703125" stroke="none" text-anchor="end">description:</text><text xml:space="preserve" x="92.5078125" y="33.25703125" stroke="none" text-anchor="start">Send email messages</text><text xml:space="preserve" x="88.0625" y="52.45703125" stroke="none" text-anchor="end">embedding:</text><text xml:space="preserve" x="92.5078125" y="52.45703125" stroke="none" text-anchor="start">vector</text><text xml:space="preserve" x="88.0625" y="71.65703125" stroke="none" text-anchor="end">similarity:</text><text xml:space="preserve" x="92.5078125" y="71.65703125" stroke="none" text-anchor="start">0.28</text></g></g></g></g></g></g><g class="node"><g fill="#F5F5F5" stroke="#9E9E9E" stroke-width="4"><circle cx="1591.2738365276332" cy="762.3478213854783" r="52"/></g><g transform="translate(1591.2738365276332 762.3478213854783)"><g transform="scale(0.2820402349544342) translate(0 -59)"><g transform="translate(0 0)"><g fill="#000000" font-family="sans-serif" font-size="50" font-weight="normal" text-anchor="middle"><text xml:space="preserve" x="0" y="43.92822265625" stroke="none">fetchWeather</text></g></g><g transform="translate(0 64)"><g transform="translate(-63.689453125 0)"><g fill="#ffffff" stroke="#000000" stroke-width="4"><rect x="0" y="0" width="127.37890625" height="54" rx="27" ry="27"/><text xml:space="preserve" x="27" y="38.142578125" stroke="none" font-family="sans-serif" font-size="40" font-weight="normal" fill="#000000">Tool</text></g></g></g></g><g transform="translate(3.429011037612589e-15 56)"><g transform="translate(0 0)"><g transform="translate(-109.84765625 0)" fill="white"><rect x="0" y="0" width="219.6953125" height="76.8" rx="0" ry="0" stroke="none"/><g font-family="sans-serif" font-size="16" font-weight="normal" fill="#000000" text-anchor="end"><text xml:space="preserve" x="88.0625" y="14.05703125" stroke="none">name:</text><text xml:space="preserve" x="92.5078125" y="14.05703125" stroke="none" text-anchor="start">fetchWeather</text><text xml:space="preserve" x="88.0625" y="33.25703125" stroke="none" text-anchor="end">description:</text><text xml:space="preserve" x="92.5078125" y="33.25703125" stroke="none" text-anchor="start">Get weather data</text><text xml:space="preserve" x="88.0625" y="52.45703125" stroke="none" text-anchor="end">embedding:</text><text xml:space="preserve" x="92.5078125" y="52.45703125" stroke="none" text-anchor="start">vector</text><text xml:space="preserve" x="88.0625" y="71.65703125" stroke="none" text-anchor="end">similarity:</text><text xml:space="preserve" x="92.5078125" y="71.65703125" stroke="none" text-anchor="start">0.19</text></g></g></g></g></g></g><g class="node"><g fill="#F5F5F5" stroke="#9E9E9E" stroke-width="4"><circle cx="1389.9630951201282" cy="762.347821385478" r="52"/></g><g transform="translate(1389.9630951201282 762.347821385478)"><g transform="scale(0.2703373205495736) translate(0 -59)"><g transform="translate(0 0)"><g fill="#000000" font-family="sans-serif" font-size="50" font-weight="normal" text-anchor="middle"><text xml:space="preserve" x="0" y="43.92822265625" stroke="none">analyzeImage</text></g></g><g transform="translate(0 64)"><g transform="translate(-63.689453125 0)"><g fill="#ffffff" stroke="#000000" stroke-width="4"><rect x="0" y="0" width="127.37890625" height="54" rx="27" ry="27"/><text xml:space="preserve" x="27" y="38.142578125" stroke="none" font-family="sans-serif" font-size="40" font-weight="normal" fill="#000000">Tool</text></g></g></g></g><g transform="translate(-39.597979746446654 39.59797974644666)"><g transform="translate(0 0)"><g transform="translate(-209.8984375 0)" fill="white"><rect x="0" y="0" width="209.8984375" height="76.8" rx="0" ry="0" stroke="none"/><g font-family="sans-serif" font-size="16" font-weight="normal" fill="#000000" text-anchor="end"><text xml:space="preserve" x="88.0625" y="14.05703125" stroke="none">name:</text><text xml:space="preserve" x="92.5078125" y="14.05703125" stroke="none" text-anchor="start">analyzeImage</text><text xml:space="preserve" x="88.0625" y="33.25703125" stroke="none" text-anchor="end">description:</text><text xml:space="preserve" x="92.5078125" y="33.25703125" stroke="none" text-anchor="start">Analyze images</text><text xml:space="preserve" x="88.0625" y="52.45703125" stroke="none" text-anchor="end">embedding:</text><text xml:space="preserve" x="92.5078125" y="52.45703125" stroke="none" text-anchor="start">vector</text><text xml:space="preserve" x="88.0625" y="71.65703125" stroke="none" text-anchor="end">similarity:</text><text xml:space="preserve" x="92.5078125" y="71.65703125" stroke="none" text-anchor="start">0.15</text></g></g></g></g></g></g><g class="node"><g fill="#F5F5F5" stroke="#9E9E9E" stroke-width="4"><circle cx="1248.0814618760787" cy="650.2288509258931" r="52"/></g><g transform="translate(1248.0814618760787 650.2288509258931)"><g transform="scale(0.4944951509000917) translate(0 -65)"><g transform="translate(0 0)"><g fill="#000000" font-family="sans-serif" font-size="60" font-weight="normal" text-anchor="middle"><text xml:space="preserve" x="0" y="52.7138671875" stroke="none">...</text></g></g><g transform="translate(0 76)"><g transform="translate(-63.689453125 0)"><g fill="#ffffff" stroke="#000000" stroke-width="4"><rect x="0" y="0" width="127.37890625" height="54" rx="27" ry="27"/><text xml:space="preserve" x="27" y="38.142578125" stroke="none" font-family="sans-serif" font-size="40" font-weight="normal" fill="#000000">Tool</text></g></g></g></g><g transform="translate(-39.597979746446654 39.59797974644666)"><g transform="translate(0 0)"><g transform="translate(-212.1328125 0)" fill="white"><rect x="0" y="0" width="212.1328125" height="57.599999999999994" rx="0" ry="0" stroke="none"/><g font-family="sans-serif" font-size="16" font-weight="normal" fill="#000000" text-anchor="end"><text xml:space="preserve" x="88.0625" y="14.05703125" stroke="none">name:</text><text xml:space="preserve" x="92.5078125" y="14.05703125" stroke="none" text-anchor="start">+103 more tools</text><text xml:space="preserve" x="88.0625" y="33.25703125" stroke="none" text-anchor="end">description:</text><text xml:space="preserve" x="92.5078125" y="33.25703125" stroke="none" text-anchor="start">...</text><text xml:space="preserve" x="88.0625" y="52.45703125" stroke="none" text-anchor="end">embedding:</text><text xml:space="preserve" x="92.5078125" y="52.45703125" stroke="none" text-anchor="start">vector</text></g></g></g></g></g></g><g class="node"><g fill="#C8E6C9" stroke="#388E3C" stroke-width="4"><circle cx="2512.382963923782" cy="318.57114907410687" r="52"/></g><g transform="translate(2512.382963923782 318.57114907410687)"><g transform="scale(0.3356925767624572) translate(0 -59)"><g transform="translate(0 0)"><g fill="#000000" font-family="sans-serif" font-size="50" font-weight="normal" text-anchor="middle"><text xml:space="preserve" x="0" y="43.92822265625" stroke="none">query</text></g></g><g transform="translate(0 64)"><g transform="translate(-120.369140625 0)"><g fill="#ffffff" stroke="#000000" stroke-width="4"><rect x="0" y="0" width="240.73828125" height="54" rx="27" ry="27"/><text xml:space="preserve" x="27" y="38.142578125" stroke="none" font-family="sans-serif" font-size="40" font-weight="normal" fill="#000000">Parameter</text></g></g></g></g><g transform="translate(39.59797974644666 -116.39797974644665)"><g transform="translate(0 0)"><g transform="translate(0 0)" fill="white"><rect x="0" y="0" width="190.3203125" height="76.8" rx="0" ry="0" stroke="none"/><g font-family="sans-serif" font-size="16" font-weight="normal" fill="#000000" text-anchor="end"><text xml:space="preserve" x="86.265625" y="14.05703125" stroke="none">name:</text><text xml:space="preserve" x="90.7109375" y="14.05703125" stroke="none" text-anchor="start">query</text><text xml:space="preserve" x="86.265625" y="33.25703125" stroke="none" text-anchor="end">type:</text><text xml:space="preserve" x="90.7109375" y="33.25703125" stroke="none" text-anchor="start">string</text><text xml:space="preserve" x="86.265625" y="52.45703125" stroke="none" text-anchor="end">description:</text><text xml:space="preserve" x="90.7109375" y="52.45703125" stroke="none" text-anchor="start">Search query</text><text xml:space="preserve" x="86.265625" y="71.65703125" stroke="none" text-anchor="end">required:</text><text xml:space="preserve" x="90.7109375" y="71.65703125" stroke="none" text-anchor="start">true</text></g></g></g></g></g></g><g class="node"><g fill="#C8E6C9" stroke="#388E3C" stroke-width="4"><circle cx="2512.382963923782" cy="650.2288509258931" r="52"/></g><g transform="translate(2512.382963923782 650.2288509258931)"><g transform="scale(0.3140259645967301) translate(0 -59)"><g transform="translate(0 0)"><g fill="#000000" font-family="sans-serif" font-size="50" font-weight="normal" text-anchor="middle"><text xml:space="preserve" x="0" y="43.92822265625" stroke="none">maxResults</text></g></g><g transform="translate(0 64)"><g transform="translate(-120.369140625 0)"><g fill="#ffffff" stroke="#000000" stroke-width="4"><rect x="0" y="0" width="240.73828125" height="54" rx="27" ry="27"/><text xml:space="preserve" x="27" y="38.142578125" stroke="none" font-family="sans-serif" font-size="40" font-weight="normal" fill="#000000">Parameter</text></g></g></g></g><g transform="translate(39.59797974644666 39.597979746446654)"><g transform="translate(0 0)"><g transform="translate(0 0)" fill="white"><rect x="0" y="0" width="160.0625" height="57.599999999999994" rx="0" ry="0" stroke="none"/><g font-family="sans-serif" font-size="16" font-weight="normal" fill="#000000" text-anchor="end"><text xml:space="preserve" x="67.59375" y="14.05703125" stroke="none">name:</text><text xml:space="preserve" x="72.0390625" y="14.05703125" stroke="none" text-anchor="start">maxResults</text><text xml:space="preserve" x="67.59375" y="33.25703125" stroke="none" text-anchor="end">type:</text><text xml:space="preserve" x="72.0390625" y="33.25703125" stroke="none" text-anchor="start">number</text><text xml:space="preserve" x="67.59375" y="52.45703125" stroke="none" text-anchor="end">required:</text><text xml:space="preserve" x="72.0390625" y="52.45703125" stroke="none" text-anchor="start">false</text></g></g></g></g></g></g><g class="node"><g fill="#E1BEE7" stroke="#7B1FA2" stroke-width="4"><circle cx="2512.382963923782" cy="484.4" r="52"/></g><g transform="translate(2512.382963923782 484.4)"><g transform="scale(0.4473507219702593) translate(0 -59)"><g transform="translate(0 0)"><g fill="#000000" font-family="sans-serif" font-size="50" font-weight="normal" text-anchor="middle"><text xml:space="preserve" x="0" y="43.92822265625" stroke="none">LLM</text></g></g><g transform="translate(0 64)"><g transform="translate(-81.47265625 0)"><g fill="#ffffff" stroke="#000000" stroke-width="4"><rect x="0" y="0" width="162.9453125" height="54" rx="27" ry="27"/><text xml:space="preserve" x="27" y="38.142578125" stroke="none" font-family="sans-serif" font-size="40" font-weight="normal" fill="#000000">Model</text></g></g></g></g><g transform="translate(3.429011037612589e-15 -94.4)"><g transform="translate(0 0)"><g transform="translate(-61.81640625 0)" fill="white"><rect x="0" y="0" width="123.6328125" height="38.4" rx="0" ry="0" stroke="none"/><g font-family="sans-serif" font-size="16" font-weight="normal" fill="#000000" text-anchor="end"><text xml:space="preserve" x="66.6953125" y="14.05703125" stroke="none">model:</text><text xml:space="preserve" x="71.140625" y="14.05703125" stroke="none" text-anchor="start">gpt-4</text><text xml:space="preserve" x="66.6953125" y="33.25703125" stroke="none" text-anchor="end">provider:</text><text xml:space="preserve" x="71.140625" y="33.25703125" stroke="none" text-anchor="start">openai</text></g></g></g></g></g></g><g class="node"><g fill="#E3F2FD" stroke="#1976D2" stroke-width="4"><circle cx="2911.8469527897087" cy="484.40000000000003" r="52"/></g><g transform="translate(2911.8469527897087 484.40000000000003)"><g transform="scale(0.35405932631748954) translate(0 -59)"><g transform="translate(0 0)"><g fill="#000000" font-family="sans-serif" font-size="50" font-weight="normal" text-anchor="middle"><text xml:space="preserve" x="0" y="43.92822265625" stroke="none">Response</text></g></g><g transform="translate(0 64)"><g transform="translate(-83.689453125 0)"><g fill="#ffffff" stroke="#000000" stroke-width="4"><rect x="0" y="0" width="167.37890625" height="54" rx="27" ry="27"/><text xml:space="preserve" x="27" y="38.142578125" stroke="none" font-family="sans-serif" font-size="40" font-weight="normal" fill="#000000">Result</text></g></g></g></g><g transform="translate(56 -9.6)"><g transform="translate(0 0)"><g transform="translate(0 0)" fill="white"><rect x="0" y="0" width="214.3203125" height="19.2" rx="0" ry="0" stroke="none"/><g font-family="sans-serif" font-size="16" font-weight="normal" fill="#000000" text-anchor="end"><text xml:space="preserve" x="34.6796875" y="14.05703125" stroke="none">text:</text><text xml:space="preserve" x="39.125" y="14.05703125" stroke="none" text-anchor="start">Here are the API docs...</text></g></g></g></g></g></g></g></svg>