<svg xmlns="http://www.w3.org/2000/svg" width="1423" height="535" viewBox="0 0 1423 535"><defs><style type="text/css"/></defs><g transform="translate(-1744.84375 202.10000000000002) scale(1)"><g class="relationship"><g transform="translate(1952.9453125 74.69999999999999) rotate(0)" stroke-width="5" stroke="#000000"><path d="M 59 0 L 416.1378493822517 0"/><polygon points="-24.8621506177483,0 -27.62461179749811,9.20820393249937 0,0 -27.62461179749811,-9.20820393249937" fill="#000000" transform="translate(441 0) rotate(0)" stroke="none"/></g><g transform="translate(2190.514237191126 74.69999999999999) rotate(0) translate(0 -13)"><g transform="translate(0 0)"><g transform="translate(-47.5390625 0)" fill="#ffffff" stroke="#000000" stroke-width="0"><rect x="0" y="0" width="95.078125" height="26" rx="5" ry="5" stroke="none"/><text xml:space="preserve" x="5" y="17.45703125" stroke="none" text-anchor="left" font-family="sans-serif" font-size="16" font-weight="normal" fill="#000000">HAS_TOOL</text></g></g></g></g><g class="relationship"><g transform="translate(2452.9453125 74.69999999999999) rotate(-21.80140948635181)" stroke-width="5" stroke="#000000"><path d="M 59 0 L 454.6543300957021 0"/><polygon points="-24.8621506177483,0 -27.62461179749811,9.20820393249937 0,0 -27.62461179749811,-9.20820393249937" fill="#000000" transform="translate(479.5164807134504 0) rotate(0)" stroke="none"/></g><g transform="translate(2691.403348833071 -20.683214533228437) rotate(-21.80140948635181) translate(0 -13)"><g transform="translate(0 0)"><g transform="translate(-53.7578125 0)" fill="#ffffff" stroke="#000000" stroke-width="0"><rect x="0" y="0" width="107.515625" height="26" rx="5" ry="5" stroke="none"/><text xml:space="preserve" x="5" y="17.45703125" stroke="none" text-anchor="left" font-family="sans-serif" font-size="16" font-weight="normal" fill="#000000">HAS_PARAM</text></g></g></g></g><g class="relationship"><g transform="translate(2452.9453125 74.69999999999999) rotate(21.80140948635181)" stroke-width="5" stroke="#000000"><path d="M 59 0 L 454.6543300957021 0"/><polygon points="-24.8621506177483,0 -27.62461179749811,9.20820393249937 0,0 -27.62461179749811,-9.20820393249937" fill="#000000" transform="translate(479.5164807134504 0) rotate(0)" stroke="none"/></g><g transform="translate(2691.403348833071 170.08321453322841) rotate(21.80140948635181) translate(0 -13)"><g transform="translate(0 0)"><g transform="translate(-43.66796875 0)" fill="#ffffff" stroke="#000000" stroke-width="0"><rect x="0" y="0" width="87.3359375" height="26" rx="5" ry="5" stroke="none"/><text xml:space="preserve" x="5" y="17.45703125" stroke="none" text-anchor="left" font-family="sans-serif" font-size="16" font-weight="normal" fill="#000000">RETURNS</text></g></g></g></g><g class="node"><g fill="#ffffff" stroke="#000000" stroke-width="4"><circle cx="1952.9453125" cy="74.69999999999999" r="52"/></g><g transform="translate(1952.9453125 74.69999999999999)"><g transform="scale(0.4063733687817848) translate(0 -59)"><g transform="translate(0 0)"><g fill="#000000" font-family="sans-serif" font-size="50" font-weight="normal" text-anchor="middle"><text xml:space="preserve" x="0" y="43.92822265625" stroke="none">ToolSet</text></g></g><g transform="translate(0 64)"><g transform="translate(-93.708984375 0)"><g fill="#ffffff" stroke="#000000" stroke-width="4"><rect x="0" y="0" width="187.41796875" height="54" rx="27" ry="27"/><text xml:space="preserve" x="27" y="38.142578125" stroke="none" font-family="sans-serif" font-size="40" font-weight="normal" fill="#000000">ToolSet</text></g></g></g></g><g transform="translate(-56 -28.79999999999999)"><g transform="translate(0 0)"><g transform="translate(-152.1015625 0)" fill="white"><rect x="0" y="0" width="152.1015625" height="57.599999999999994" rx="0" ry="0" stroke="none"/><g font-family="sans-serif" font-size="16" font-weight="normal" fill="#000000" text-anchor="end"><text xml:space="preserve" x="81.84375" y="14.05703125" stroke="none">hash:</text><text xml:space="preserve" x="86.2890625" y="14.05703125" stroke="none" text-anchor="start">string</text><text xml:space="preserve" x="81.84375" y="33.25703125" stroke="none" text-anchor="end">updatedAt:</text><text xml:space="preserve" x="86.2890625" y="33.25703125" stroke="none" text-anchor="start">datetime</text><text xml:space="preserve" x="81.84375" y="52.45703125" stroke="none" text-anchor="end">toolCount:</text><text xml:space="preserve" x="86.2890625" y="52.45703125" stroke="none" text-anchor="start">integer</text></g></g></g></g></g></g><g class="node"><g fill="#ffffff" stroke="#000000" stroke-width="4"><circle cx="2452.9453125" cy="74.69999999999999" r="52"/></g><g transform="translate(2452.9453125 74.69999999999999)"><g transform="scale(0.5183263352777285) translate(0 -59)"><g transform="translate(0 0)"><g fill="#000000" font-family="sans-serif" font-size="50" font-weight="normal" text-anchor="middle"><text xml:space="preserve" x="0" y="43.92822265625" stroke="none">Tool</text></g></g><g transform="translate(0 64)"><g transform="translate(-63.689453125 0)"><g fill="#ffffff" stroke="#000000" stroke-width="4"><rect x="0" y="0" width="127.37890625" height="54" rx="27" ry="27"/><text xml:space="preserve" x="27" y="38.142578125" stroke="none" font-family="sans-serif" font-size="40" font-weight="normal" fill="#000000">Tool</text></g></g></g></g><g transform="translate(3.429011037612589e-15 -152)"><g transform="translate(0 0)"><g transform="translate(-79.16015625 0)" fill="white"><rect x="0" y="0" width="158.3203125" height="96" rx="0" ry="0" stroke="none"/><g font-family="sans-serif" font-size="16" font-weight="normal" fill="#000000" text-anchor="end"><text xml:space="preserve" x="88.0625" y="14.05703125" stroke="none">id:</text><text xml:space="preserve" x="92.5078125" y="14.05703125" stroke="none" text-anchor="start">uuid</text><text xml:space="preserve" x="88.0625" y="33.25703125" stroke="none" text-anchor="end">name:</text><text xml:space="preserve" x="92.5078125" y="33.25703125" stroke="none" text-anchor="start">string</text><text xml:space="preserve" x="88.0625" y="52.45703125" stroke="none" text-anchor="end">description:</text><text xml:space="preserve" x="92.5078125" y="52.45703125" stroke="none" text-anchor="start">string</text><text xml:space="preserve" x="88.0625" y="71.65703125" stroke="none" text-anchor="end">embedding:</text><text xml:space="preserve" x="92.5078125" y="71.65703125" stroke="none" text-anchor="start">vector</text><text xml:space="preserve" x="88.0625" y="90.85703124999999" stroke="none" text-anchor="end">updatedAt:</text><text xml:space="preserve" x="92.5078125" y="90.85703124999999" stroke="none" text-anchor="start">datetime</text></g></g></g></g></g></g><g class="node"><g fill="#ffffff" stroke="#000000" stroke-width="4"><circle cx="2952.9453125" cy="-125.30000000000001" r="52"/></g><g transform="translate(2952.9453125 -125.30000000000001)"><g transform="scale(0.3356925767624572) translate(0 -59)"><g transform="translate(0 0)"><g fill="#000000" font-family="sans-serif" font-size="50" font-weight="normal" text-anchor="middle"><text xml:space="preserve" x="0" y="43.92822265625" stroke="none">Parameter</text></g></g><g transform="translate(0 64)"><g transform="translate(-120.369140625 0)"><g fill="#ffffff" stroke="#000000" stroke-width="4"><rect x="0" y="0" width="240.73828125" height="54" rx="27" ry="27"/><text xml:space="preserve" x="27" y="38.142578125" stroke="none" font-family="sans-serif" font-size="40" font-weight="normal" fill="#000000">Parameter</text></g></g></g></g><g transform="translate(56 -76.8)"><g transform="translate(0 0)"><g transform="translate(0 0)" fill="white"><rect x="0" y="0" width="158.3203125" height="153.6" rx="0" ry="0" stroke="none"/><g font-family="sans-serif" font-size="16" font-weight="normal" fill="#000000" text-anchor="end"><text xml:space="preserve" x="88.0625" y="14.05703125" stroke="none">id:</text><text xml:space="preserve" x="92.5078125" y="14.05703125" stroke="none" text-anchor="start">uuid</text><text xml:space="preserve" x="88.0625" y="33.25703125" stroke="none" text-anchor="end">toolId:</text><text xml:space="preserve" x="92.5078125" y="33.25703125" stroke="none" text-anchor="start">uuid</text><text xml:space="preserve" x="88.0625" y="52.45703125" stroke="none" text-anchor="end">name:</text><text xml:space="preserve" x="92.5078125" y="52.45703125" stroke="none" text-anchor="start">string</text><text xml:space="preserve" x="88.0625" y="71.65703125" stroke="none" text-anchor="end">type:</text><text xml:space="preserve" x="92.5078125" y="71.65703125" stroke="none" text-anchor="start">string</text><text xml:space="preserve" x="88.0625" y="90.85703124999999" stroke="none" text-anchor="end">description:</text><text xml:space="preserve" x="92.5078125" y="90.85703124999999" stroke="none" text-anchor="start">string</text><text xml:space="preserve" x="88.0625" y="110.05703125" stroke="none" text-anchor="end">required:</text><text xml:space="preserve" x="92.5078125" y="110.05703125" stroke="none" text-anchor="start">boolean</text><text xml:space="preserve" x="88.0625" y="129.25703125" stroke="none" text-anchor="end">embedding:</text><text xml:space="preserve" x="92.5078125" y="129.25703125" stroke="none" text-anchor="start">vector</text><text xml:space="preserve" x="88.0625" y="148.45703125" stroke="none" text-anchor="end">updatedAt:</text><text xml:space="preserve" x="92.5078125" y="148.45703125" stroke="none" text-anchor="start">datetime</text></g></g></g></g></g></g><g class="node"><g fill="#ffffff" stroke="#000000" stroke-width="4"><circle cx="2952.9453125" cy="274.7" r="52"/></g><g transform="translate(2952.9453125 274.7)"><g transform="scale(0.3144105810552063) translate(0 -59)"><g transform="translate(0 0)"><g fill="#000000" font-family="sans-serif" font-size="50" font-weight="normal" text-anchor="middle"><text xml:space="preserve" x="0" y="43.92822265625" stroke="none">ReturnType</text></g></g><g transform="translate(0 64)"><g transform="translate(-130.3984375 0)"><g fill="#ffffff" stroke="#000000" stroke-width="4"><rect x="0" y="0" width="260.796875" height="54" rx="27" ry="27"/><text xml:space="preserve" x="27" y="38.142578125" stroke="none" font-family="sans-serif" font-size="40" font-weight="normal" fill="#000000">ReturnType</text></g></g></g></g><g transform="translate(56 -57.599999999999994)"><g transform="translate(0 0)"><g transform="translate(0 0)" fill="white"><rect x="0" y="0" width="158.3203125" height="115.19999999999999" rx="0" ry="0" stroke="none"/><g font-family="sans-serif" font-size="16" font-weight="normal" fill="#000000" text-anchor="end"><text xml:space="preserve" x="88.0625" y="14.05703125" stroke="none">id:</text><text xml:space="preserve" x="92.5078125" y="14.05703125" stroke="none" text-anchor="start">uuid</text><text xml:space="preserve" x="88.0625" y="33.25703125" stroke="none" text-anchor="end">toolId:</text><text xml:space="preserve" x="92.5078125" y="33.25703125" stroke="none" text-anchor="start">uuid</text><text xml:space="preserve" x="88.0625" y="52.45703125" stroke="none" text-anchor="end">type:</text><text xml:space="preserve" x="92.5078125" y="52.45703125" stroke="none" text-anchor="start">string</text><text xml:space="preserve" x="88.0625" y="71.65703125" stroke="none" text-anchor="end">description:</text><text xml:space="preserve" x="92.5078125" y="71.65703125" stroke="none" text-anchor="start">string</text><text xml:space="preserve" x="88.0625" y="90.85703124999999" stroke="none" text-anchor="end">embedding:</text><text xml:space="preserve" x="92.5078125" y="90.85703124999999" stroke="none" text-anchor="start">vector</text><text xml:space="preserve" x="88.0625" y="110.05703125" stroke="none" text-anchor="end">updatedAt:</text><text xml:space="preserve" x="92.5078125" y="110.05703125" stroke="none" text-anchor="start">datetime</text></g></g></g></g></g></g></g></svg>